<svg id="Layer_1" xmlns="http://www.w3.org/2000/svg" viewBox="0 0 958.96 150.37"><style>.st0{fill:#29abe1}.st1{fill:#2b2624}.st2{font-family:&apos;MyriadPro-Regular&apos;}.st3{font-size:6.9594px}.st17{fill:#282d5c}</style><path class="st0" d="M605.98 39.46c0-5.88 3.27-8.82 9.83-8.82 6.55 0 9.83 2.94 9.83 8.82 0 2.8-.82 4.98-2.46 6.54-1.64 1.56-4.09 2.34-7.37 2.34-6.55-.01-9.83-2.96-9.83-8.88zm18.82 83.27h-18.05V56.56h18.05v66.17zM697.52 122.73h-18.05V84.08c0-4.77-.85-8.35-2.55-10.74-1.7-2.39-4.4-3.58-8.11-3.58-5.05 0-8.7 1.69-10.95 5.06-2.25 3.37-3.37 8.97-3.37 16.78v31.13h-18.05V56.56h13.79l2.43 8.46h1.01c2.01-3.2 4.78-5.61 8.32-7.25 3.53-1.64 7.55-2.46 12.04-2.46 7.69 0 13.53 2.08 17.52 6.24 3.98 4.16 5.98 10.17 5.98 18.02v43.16zM750.04 122.73l-3.49-9h-.47c-3.04 3.83-6.17 6.48-9.38 7.96-3.22 1.48-7.41 2.22-12.58 2.22-6.35 0-11.36-1.81-15-5.45-3.65-3.63-5.48-8.8-5.48-15.51 0-7.02 2.46-12.2 7.37-15.54 4.91-3.33 12.32-5.18 22.23-5.53l11.48-.36v-2.9c0-6.71-3.43-10.06-10.3-10.06-5.29 0-11.5 1.6-18.64 4.79l-5.98-12.19c7.62-3.99 16.06-5.98 25.33-5.98 8.88 0 15.68 1.93 20.42 5.8 4.74 3.87 7.1 9.75 7.1 17.64v44.1h-12.61zm-5.33-30.66l-6.98.24c-5.25.16-9.15 1.11-11.72 2.84-2.57 1.74-3.85 4.38-3.85 7.93 0 5.09 2.92 7.64 8.76 7.64 4.18 0 7.53-1.2 10.03-3.61 2.51-2.41 3.76-5.6 3.76-9.59v-5.45zM835.04 122.73h-18.05V84.08c0-4.77-.85-8.35-2.55-10.74-1.7-2.39-4.4-3.58-8.11-3.58-5.05 0-8.7 1.69-10.95 5.06-2.25 3.37-3.37 8.97-3.37 16.78v31.13h-18.05V56.56h13.79l2.43 8.46h1.01c2.01-3.2 4.78-5.61 8.32-7.25 3.53-1.64 7.55-2.46 12.04-2.46 7.69 0 13.53 2.08 17.52 6.24 3.98 4.16 5.98 10.17 5.98 18.02v43.16zM873.16 123.92c-20.6 0-30.9-11.3-30.9-33.91 0-11.25 2.8-19.84 8.4-25.78 5.6-5.94 13.63-8.91 24.09-8.91 7.66 0 14.52 1.5 20.6 4.5l-5.33 13.97c-2.84-1.14-5.49-2.08-7.93-2.81-2.45-.73-4.89-1.1-7.34-1.1-9.39 0-14.09 6.67-14.09 20.01 0 12.94 4.7 19.41 14.09 19.41 3.47 0 6.69-.46 9.65-1.39 2.96-.93 5.92-2.38 8.88-4.35V119c-2.92 1.86-5.87 3.14-8.85 3.85-2.97.71-6.73 1.07-11.27 1.07zM930.58 123.92c-10.65 0-18.98-2.94-24.98-8.82-6-5.88-9-14.21-9-24.98 0-11.09 2.77-19.66 8.32-25.72 5.54-6.06 13.21-9.09 22.99-9.09 9.35 0 16.63 2.66 21.84 7.99s7.81 12.69 7.81 22.08v8.76h-42.67c.2 5.13 1.72 9.14 4.56 12.02 2.84 2.88 6.83 4.32 11.96 4.32 3.98 0 7.75-.41 11.3-1.24 3.55-.83 7.26-2.15 11.13-3.97v13.97c-3.16 1.58-6.53 2.75-10.12 3.52-3.59.77-7.97 1.16-13.14 1.16zm-2.55-55.76c-3.83 0-6.83 1.21-9 3.64s-3.41 5.87-3.73 10.33h25.33c-.08-4.46-1.24-7.9-3.49-10.33-2.24-2.42-5.28-3.64-9.11-3.64z"/><text transform="translate(10.808 62.944)" class="st1 st2 st3"></text><text transform="translate(9.066 62.944)" class="st1 st2 st3"></text><linearGradient id="SVGID_1_" gradientUnits="userSpaceOnUse" x1="426.597" y1="-491.686" x2="574.352" y2="-491.686" gradientTransform="rotate(23.758 -1059.107 -1218.993)"><stop offset="0" stop-color="#0166a4"/><stop offset=".503" stop-color="#0072ab"/><stop offset=".847" stop-color="#00b0df"/><stop offset="1" stop-color="#a5d5ef"/></linearGradient><path d="M142.91 104.77c-16.43 37.35-60.03 54.29-97.38 37.85C8.19 126.18-8.77 82.59 7.67 45.24 24.12 7.89 67.71-9.05 105.06 7.38c37.34 16.44 54.29 60.04 37.85 97.39z" fill="url(#SVGID_1_)"/><linearGradient id="SVGID_2_" gradientUnits="userSpaceOnUse" x1="4.009" y1="65.827" x2="147.987" y2="86.153"><stop offset="0" stop-color="#005a99"/><stop offset=".503" stop-color="#0077b2"/><stop offset=".847" stop-color="#00b0df"/><stop offset="1" stop-color="#a5d5ef"/></linearGradient><path d="M143.2 105.52c-16.29 37.01-59.5 53.81-96.51 37.52C9.68 126.74-7.12 83.53 9.17 46.52 25.46 9.5 68.67-7.3 105.68 9c37.02 16.29 53.82 59.5 37.52 96.52z" fill="url(#SVGID_2_)"/><linearGradient id="SVGID_3_" gradientUnits="userSpaceOnUse" x1="434.847" y1="-489.468" x2="575.327" y2="-489.468" gradientTransform="rotate(23.758 -1059.107 -1218.993)"><stop offset="0" stop-color="#0565a7"/><stop offset=".503" stop-color="#027ec0"/><stop offset=".847" stop-color="#07b0e4"/><stop offset="1" stop-color="#a4d4f2"/></linearGradient><path d="M142.91 107.19c-15.62 35.51-57.08 51.62-92.59 35.99C14.81 127.56-1.3 86.1 14.33 50.6c15.63-35.51 57.08-51.63 92.59-36 35.51 15.63 51.63 57.09 35.99 92.59z" fill="url(#SVGID_3_)"/><linearGradient id="SVGID_4_" gradientUnits="userSpaceOnUse" x1="17.181" y1="65.431" x2="141.258" y2="92.251"><stop offset="0" stop-color="#0c4580"/><stop offset=".503" stop-color="#0372b1"/><stop offset=".847" stop-color="#00b0e1"/><stop offset="1" stop-color="#a5d5ef"/></linearGradient><path d="M138.73 104.98c-14.41 32.73-52.62 47.58-85.35 33.18C20.65 123.75 5.8 85.54 20.2 52.81c14.41-32.73 52.62-47.59 85.35-33.18 32.73 14.41 47.59 52.62 33.18 85.35z" fill="url(#SVGID_4_)"/><linearGradient id="SVGID_5_" gradientUnits="userSpaceOnUse" x1="510.998" y1="-554.04" x2="493.01" y2="-429.621" gradientTransform="rotate(23.758 -1059.107 -1218.993)"><stop offset=".018" stop-color="#edf3fa"/><stop offset=".123" stop-color="#1eabde"/><stop offset="1" stop-color="#054883"/></linearGradient><path d="M131.95 101.43c-13.61 30.93-49.72 44.97-80.65 31.35-30.94-13.61-44.98-49.72-31.36-80.66C33.56 21.2 69.67 7.16 100.6 20.77c30.93 13.62 44.96 49.73 31.35 80.66z" fill="url(#SVGID_5_)"/><linearGradient id="SVGID_6_" gradientUnits="userSpaceOnUse" x1="514.671" y1="-548.246" x2="497.837" y2="-431.812" gradientTransform="rotate(23.758 -1059.107 -1218.993)"><stop offset="0" stop-color="#1faae0"/><stop offset="1" stop-color="#054883"/></linearGradient><path d="M131.57 103.13c-12.74 28.95-46.53 42.08-75.48 29.34-28.94-12.74-42.08-46.54-29.34-75.48 12.74-28.95 46.54-42.08 75.48-29.34 28.95 12.74 42.09 46.53 29.34 75.48z" fill="url(#SVGID_6_)"/><radialGradient id="SVGID_7_" cx="106.231" cy="58.97" r="68.85" gradientUnits="userSpaceOnUse"><stop offset="0" stop-color="#dbeefa"/><stop offset=".841" stop-color="#c2e3f7"/></radialGradient><path d="M132.91 104.46c-12.1 27.5-44.13 40-71.54 27.94-27.41-12.06-39.82-44.13-27.72-71.62 12.1-27.5 44.13-40 71.54-27.94 27.4 12.06 39.82 44.13 27.72 71.62z" fill="url(#SVGID_7_)"/><linearGradient id="SVGID_8_" gradientUnits="userSpaceOnUse" x1="475.339" y1="-475.417" x2="533.248" y2="-475.417" gradientTransform="rotate(23.758 -1059.107 -1218.993)"><stop offset="0" stop-color="#47beec"/><stop offset=".804" stop-color="#fff"/><stop offset=".957" stop-color="#fff"/></linearGradient><path d="M45.56 80.16c-9.34 21.22 5.17 34.4 19.3 50.9-6.31-10.65-9.27-27.9-1.23-42.22 8.04-14.31 30.39-20.92 44.37-9.48.57.42 1.13.39 1.22-.15.83-7.24-6.77-20.33-20.02-22.31-13.25-1.98-25.56 3.3-30.93 7.27-5.36 3.97-11.29 12.76-12.71 15.99z" fill="url(#SVGID_8_)"/><path d="M60.19 89.76c2.03-4.59 4.78-8.62 8.08-12.03.66-.67.29-1.08-.39-.75-7.61 4.05-13.35 10.93-17.26 19.3.66 12.86 5.5 25.11 14.23 34.84-.15-.26-.3-.51-.44-.77-8.19-11.44-10.3-26.78-4.22-40.59z" fill="#3baae1"/><linearGradient id="SVGID_9_" gradientUnits="userSpaceOnUse" x1="463.911" y1="-460.928" x2="536.396" y2="-526.194" gradientTransform="matrix(.9153 .4029 -.404 .9179 -581.546 325.836)"><stop offset=".374" stop-color="#0999d6"/><stop offset=".883" stop-color="#fafcff"/><stop offset="1" stop-color="#fafcff"/></linearGradient><path d="M44.77 76.78c10.77-24.48 39.29-35.61 63.69-24.86 3.93 1.73 7.36 3.77 10.37 6.13.74.61 1.55.16 1.42-.98-.22-1.25-.84-13.87-17.57-21.23-26.37-11.61-58.16-.3-69.8 26.15-10.09 22.92-1.29 50.49 18.09 64.63-10.51-13.57-13.61-33-6.2-49.84z" fill="url(#SVGID_9_)"/><linearGradient id="SVGID_10_" gradientUnits="userSpaceOnUse" x1="42.603" y1="93.768" x2="109.282" y2="93.768"><stop offset=".141" stop-color="#32abe1"/><stop offset=".521" stop-color="#4bbfee"/><stop offset="1" stop-color="#e8f4fb"/></linearGradient><path d="M90.6 57.16c-.08-.01-.15-.03-.23-.05-.38-.08-.76-.15-1.16-.21-13.25-1.98-25.56 3.3-30.93 7.27-5.37 3.96-11.3 12.75-12.72 15.98-.27.62-.52 1.23-.76 1.84-.02.06-.05.12-.07.18-.21.57-.41 1.14-.59 1.7l-.09.27c-.17.53-.32 1.08-.47 1.61-.03.11-.05.21-.08.31-.13.53-.25 1.04-.35 1.55-.02.11-.05.21-.06.32-.09.51-.18 1.01-.25 1.51l-.03.31c-.06.49-.11.98-.14 1.46-.01.1-.01.19-.02.27-.03.44-.04.88-.05 1.32 0 .11-.01.22-.01.33 0 .45.01.89.04 1.33 0 .15.02.29.03.44.02.41.06.82.11 1.23l.06.5c.05.39.11.77.18 1.16.03.18.07.37.1.55.07.37.15.73.24 1.1l.15.58c.07.27.15.54.22.8.08.29.17.58.27.86.07.21.14.44.21.65.12.33.24.66.37 1 .07.18.14.37.21.55.16.38.31.76.48 1.13.07.14.13.29.19.43.62 1.35 1.33 2.68 2.11 3.99l.01.01c.33-5.2 1.37-10.43 3.11-15.54.54-3.64 1.55-7 2.94-10.02 9.82-22.35 38.54-31.22 54.96-8.71.04.05.24.43.49.91.15.83.21 1.62.2 2.38.25-7.09-6.72-18.74-18.67-21.3zm-26.84 71.9c-.34-.67-.68-1.36-1-2.08-.01-.01-.01-.01-.01-.02-.65-1.45-1.23-2.97-1.74-4.57-.02.02-.03.04-.06.06l.06.18c-.57.73-1.2 1.34-1.85 1.88.95 1.1 1.93 2.21 2.91 3.33.93 1.06 1.86 2.13 2.79 3.22-.37-.62-.73-1.27-1.08-1.95 0-.01-.02-.03-.02-.05z" fill="url(#SVGID_10_)"/><linearGradient id="SVGID_11_" gradientUnits="userSpaceOnUse" x1="500.571" y1="-434.272" x2="510.471" y2="-517.799" gradientTransform="matrix(.9153 .4029 -.4044 .9186 -582.613 326.299)"><stop offset="0" stop-color="#009ad4"/><stop offset=".681" stop-color="#1ab2e6"/><stop offset=".908" stop-color="#95d3f4"/><stop offset="1" stop-color="#95d3f4"/></linearGradient><path d="M78.54 134.83C54.7 124.7 44.35 96.33 54.85 72.48c4.44-10.08 11.94-17.86 20.93-22.71-13.66 3.48-25.67 13.02-31.8 26.96-7.28 16.54-4.59 34.99 5.71 48.32.33.43.79.98 1.13 1.42 3.19 2.37 6.74 4.39 10.53 6.06 3.51 1.55 7.19 2.62 10.81 3.38 4.13.86 8.83 1.33 12.77 1.08-1.41-.29-3.37-.81-6.39-2.16z" fill="url(#SVGID_11_)"/><linearGradient id="SVGID_12_" gradientUnits="userSpaceOnUse" x1="35.884" y1="95.644" x2="70.853" y2="31.741"><stop offset="0" stop-color="#0095d0"/><stop offset=".669" stop-color="#6ec0ec"/><stop offset=".896" stop-color="#bcddf5"/></linearGradient><path d="M36.61 94.76c0-28.51 21.66-51.84 49.34-54.54 1.17-.04 2.02-1.01.03-1.32-20.9-3.15-43 9.54-54.76 27.55-5.27 17.12-2.03 36.73 10.5 51.51a55.001 55.001 0 0 1-5.11-23.2z" fill="url(#SVGID_12_)"/><path class="st17" d="M262.13 79.28c0 14.57-3.61 25.76-10.83 33.58s-17.57 11.74-31.06 11.74c-13.48 0-23.83-3.91-31.06-11.74s-10.83-19.06-10.83-33.7 3.62-25.83 10.86-33.55c7.24-7.72 17.62-11.59 31.15-11.59 13.52 0 23.86 3.89 31.03 11.68 7.16 7.78 10.74 18.98 10.74 33.58zm-64.21 0c0 9.83 1.87 17.23 5.6 22.21 3.73 4.98 9.31 7.46 16.73 7.46 14.89 0 22.33-9.89 22.33-29.67 0-19.82-7.4-29.73-22.21-29.73-7.42 0-13.02 2.5-16.79 7.49-3.78 5-5.66 12.41-5.66 22.24zM298.15 124.6c-20.95 0-31.42-11.49-31.42-34.49 0-11.44 2.85-20.17 8.55-26.21 5.7-6.04 13.86-9.06 24.5-9.06 7.78 0 14.77 1.53 20.94 4.57l-5.42 14.2c-2.89-1.16-5.58-2.12-8.06-2.86-2.49-.74-4.98-1.11-7.46-1.11-9.55 0-14.32 6.78-14.32 20.34 0 13.16 4.77 19.74 14.32 19.74 3.53 0 6.8-.47 9.81-1.41 3.01-.94 6.02-2.42 9.03-4.42v15.71c-2.97 1.89-5.97 3.19-9 3.91-3.03.73-6.86 1.09-11.47 1.09zM357.94 124.6c-10.83 0-19.3-2.99-25.4-8.97-6.1-5.98-9.15-14.44-9.15-25.4 0-11.28 2.82-19.99 8.46-26.15 5.64-6.16 13.43-9.24 23.38-9.24 9.51 0 16.91 2.71 22.21 8.13 5.3 5.42 7.94 12.9 7.94 22.45v8.91H342c.2 5.22 1.75 9.29 4.63 12.22 2.89 2.93 6.94 4.39 12.16 4.39 4.05 0 7.88-.42 11.5-1.26 3.61-.84 7.38-2.19 11.32-4.03v14.2c-3.21 1.61-6.64 2.8-10.29 3.58-3.67.78-8.12 1.17-13.38 1.17zm-2.58-56.69c-3.89 0-6.94 1.23-9.15 3.7s-3.47 5.97-3.79 10.5h25.76c-.08-4.53-1.26-8.03-3.55-10.5-2.29-2.47-5.38-3.7-9.27-3.7zM437.73 123.4l-3.55-9.15h-.48c-3.09 3.89-6.27 6.59-9.54 8.09-3.27 1.5-7.53 2.26-12.79 2.26-6.46 0-11.55-1.84-15.26-5.54-3.71-3.69-5.57-8.95-5.57-15.77 0-7.14 2.5-12.41 7.49-15.8 5-3.39 12.53-5.27 22.6-5.63l11.68-.36v-2.95c0-6.82-3.49-10.23-10.47-10.23-5.38 0-11.7 1.63-18.96 4.88l-6.08-12.4c7.74-4.05 16.33-6.08 25.76-6.08 9.03 0 15.95 1.97 20.76 5.9 4.81 3.93 7.22 9.91 7.22 17.94v44.84h-12.81zm-5.42-31.18l-7.1.24c-5.34.16-9.31 1.12-11.92 2.89-2.61 1.77-3.91 4.45-3.91 8.07 0 5.18 2.97 7.76 8.91 7.76 4.25 0 7.65-1.22 10.2-3.67 2.55-2.45 3.82-5.7 3.82-9.75v-5.54zM522.07 123.4h-18.36V84.1c0-4.85-.86-8.5-2.59-10.92-1.72-2.43-4.47-3.64-8.25-3.64-5.14 0-8.85 1.72-11.13 5.15-2.29 3.43-3.43 9.12-3.43 17.06v31.66h-18.36v-67.3h14.02l2.47 8.61h1.02c2.05-3.25 4.87-5.71 8.46-7.37 3.59-1.66 7.67-2.5 12.25-2.5 7.82 0 13.76 2.12 17.82 6.35 4.05 4.23 6.08 10.34 6.08 18.33v43.87z"/><g><path class="st0" d="M566.93 123.4h-18.65V48.28c0-7.88 6.39-14.26 14.26-14.26h36.97v15.53h-27.86c-2.61 0-4.73 2.12-4.73 4.73V72.6h30.32v15.47h-30.32v35.33z"/></g></svg>